<svg width="120" height="120" viewBox="0 0 120 120" xmlns="http://www.w3.org/2000/svg">
  <defs>
    <linearGradient id="snowbg" x1="0" y1="0" x2="0" y2="1">
      <stop offset="0%" stop-color="#dbeafe"/>
      <stop offset="100%" stop-color="#bfdbfe"/>
    </linearGradient>
    <linearGradient id="skig_s" x1="0" y1="0" x2="1" y2="0">
      <stop offset="0%" stop-color="#1d4ed8"/>
      <stop offset="100%" stop-color="#0d9488"/>
    </linearGradient>
  </defs>
  <rect width="120" height="120" rx="26" fill="url(#snowbg)"/>
  <circle cx="20" cy="18" r="2" fill="#ffffff" opacity="0.8"/>
  <circle cx="45" cy="12" r="1.5" fill="#ffffff" opacity="0.7"/>
  <circle cx="70" cy="20" r="2.5" fill="#ffffff" opacity="0.6"/>
  <circle cx="95" cy="14" r="1.5" fill="#ffffff" opacity="0.8"/>
  <circle cx="108" cy="28" r="2" fill="#ffffff" opacity="0.6"/>
  <circle cx="10" cy="38" r="1.5" fill="#ffffff" opacity="0.5"/>
  <circle cx="35" cy="32" r="1" fill="#ffffff" opacity="0.6"/>
  <circle cx="88" cy="36" r="1.5" fill="#ffffff" opacity="0.7"/>
  <circle cx="58" cy="28" r="1" fill="#ffffff" opacity="0.5"/>
  <ellipse cx="60" cy="110" rx="70" ry="18" fill="#ffffff" opacity="0.9"/>
  <ellipse cx="20" cy="108" rx="28" ry="12" fill="#ffffff" opacity="0.7"/>
  <ellipse cx="100" cy="106" rx="24" ry="10" fill="#ffffff" opacity="0.7"/>
  <polygon points="10,90 38,52 66,90" fill="#93c5fd" opacity="0.35"/>
  <polygon points="54,90 82,48 110,90" fill="#93c5fd" opacity="0.25"/>
  <polygon points="38,52 30,66 46,66" fill="#ffffff" opacity="0.7"/>
  <polygon points="82,48 74,62 90,62" fill="#ffffff" opacity="0.7"/>
  <rect x="16" y="72" width="88" height="7" rx="3.5" fill="url(#skig_s)"/>
  <rect x="16" y="83" width="88" height="7" rx="3.5" fill="url(#skig_s)" opacity="0.7"/>
  <path d="M16 75.5 Q8 75 6 70" fill="none" stroke="#1d4ed8" stroke-width="7" stroke-linecap="round"/>
  <path d="M16 86.5 Q8 86 6 81" fill="none" stroke="#0d9488" stroke-width="7" stroke-linecap="round" opacity="0.7"/>
  <line x1="104" y1="73" x2="116" y2="73" stroke="#1d4ed8" stroke-width="2" stroke-linecap="round" opacity="0.5"/>
  <line x1="107" y1="78" x2="117" y2="78" stroke="#1d4ed8" stroke-width="1" stroke-linecap="round" opacity="0.3"/>
  <line x1="104" y1="84" x2="116" y2="84" stroke="#0d9488" stroke-width="2" stroke-linecap="round" opacity="0.5"/>
  <line x1="107" y1="89" x2="117" y2="89" stroke="#0d9488" stroke-width="1" stroke-linecap="round" opacity="0.3"/>
  <path d="M36 62 Q60 46 84 62" fill="none" stroke="#1d4ed8" stroke-width="2.5" stroke-linecap="round" opacity="0.8"/>
  <path d="M44 56 Q60 46 76 56" fill="none" stroke="#1d4ed8" stroke-width="1.8" stroke-linecap="round" opacity="0.5"/>
  <circle cx="60" cy="46" r="3" fill="#1d4ed8" opacity="0.9"/>
  <g transform="translate(22,44)" opacity="0.5">
    <line x1="-4" y1="0" x2="4" y2="0" stroke="#1d4ed8" stroke-width="1"/>
    <line x1="0" y1="-4" x2="0" y2="4" stroke="#1d4ed8" stroke-width="1"/>
    <line x1="-3" y1="-3" x2="3" y2="3" stroke="#1d4ed8" stroke-width="1"/>
    <line x1="3" y1="-3" x2="-3" y2="3" stroke="#1d4ed8" stroke-width="1"/>
  </g>
  <g transform="translate(100,42)" opacity="0.4">
    <line x1="-3" y1="0" x2="3" y2="0" stroke="#0d9488" stroke-width="1"/>
    <line x1="0" y1="-3" x2="0" y2="3" stroke="#0d9488" stroke-width="1"/>
    <line x1="-2" y1="-2" x2="2" y2="2" stroke="#0d9488" stroke-width="1"/>
    <line x1="2" y1="-2" x2="-2" y2="2" stroke="#0d9488" stroke-width="1"/>
  </g>
  <text x="94" y="114" font-family="system-ui,-apple-system,sans-serif" font-size="13" font-weight="800" fill="#1d4ed8" opacity="0.9">™</text>
</svg>
