<svg width="420" height="120" viewBox="0 0 420 120" xmlns="http://www.w3.org/2000/svg">
  <defs>
    <linearGradient id="fullsnowbg" x1="0" y1="0" x2="0" y2="1">
      <stop offset="0%" stop-color="#dbeafe"/>
      <stop offset="100%" stop-color="#bfdbfe"/>
    </linearGradient>
    <linearGradient id="skigrad3" x1="0" y1="0" x2="1" y2="0">
      <stop offset="0%" stop-color="#1d4ed8"/>
      <stop offset="100%" stop-color="#0d9488"/>
    </linearGradient>
    <linearGradient id="castgrad" x1="0" y1="0" x2="1" y2="0">
      <stop offset="0%" stop-color="#1d4ed8"/>
      <stop offset="100%" stop-color="#0d9488"/>
    </linearGradient>
  </defs>
  <rect width="420" height="120" rx="20" fill="url(#fullsnowbg)"/>
  <circle cx="150" cy="14" r="2" fill="#ffffff" opacity="0.8"/>
  <circle cx="200" cy="10" r="1.5" fill="#ffffff" opacity="0.7"/>
  <circle cx="260" cy="16" r="2" fill="#ffffff" opacity="0.6"/>
  <circle cx="310" cy="10" r="1.5" fill="#ffffff" opacity="0.8"/>
  <circle cx="370" cy="18" r="2" fill="#ffffff" opacity="0.6"/>
  <circle cx="390" cy="8" r="1" fill="#ffffff" opacity="0.7"/>
  <circle cx="170" cy="22" r="1" fill="#ffffff" opacity="0.5"/>
  <circle cx="340" cy="24" r="1.5" fill="#ffffff" opacity="0.5"/>
  <circle cx="410" cy="30" r="1" fill="#ffffff" opacity="0.4"/>
  <ellipse cx="210" cy="116" rx="220" ry="14" fill="#ffffff" opacity="0.85"/>
  <ellipse cx="60" cy="114" rx="80" ry="10" fill="#ffffff" opacity="0.6"/>
  <ellipse cx="380" cy="113" rx="70" ry="9" fill="#ffffff" opacity="0.6"/>
  <polygon points="8,95 30,60 52,95" fill="#93c5fd" opacity="0.3"/>
  <polygon points="38,95 60,55 82,95" fill="#93c5fd" opacity="0.2"/>
  <polygon points="22,60 16,72 28,72" fill="#ffffff" opacity="0.6"/>
  <polygon points="60,55 54,68 66,68" fill="#ffffff" opacity="0.6"/>
  <rect x="14" y="68" width="72" height="6.5" rx="3.25" fill="url(#skigrad3)"/>
  <rect x="14" y="78" width="72" height="6.5" rx="3.25" fill="url(#skigrad3)" opacity="0.65"/>
  <path d="M14 71 Q7 71 5 66" fill="none" stroke="#1d4ed8" stroke-width="6.5" stroke-linecap="round"/>
  <path d="M14 81 Q7 81 5 77" fill="none" stroke="#0d9488" stroke-width="6.5" stroke-linecap="round" opacity="0.65"/>
  <line x1="86" y1="68" x2="98" y2="68" stroke="#1d4ed8" stroke-width="2" stroke-linecap="round" opacity="0.45"/>
  <line x1="89" y1="73" x2="99" y2="73" stroke="#1d4ed8" stroke-width="1" stroke-linecap="round" opacity="0.25"/>
  <line x1="86" y1="79" x2="98" y2="79" stroke="#0d9488" stroke-width="2" stroke-linecap="round" opacity="0.45"/>
  <line x1="89" y1="84" x2="99" y2="84" stroke="#0d9488" stroke-width="1" stroke-linecap="round" opacity="0.25"/>
  <path d="M24 60 Q46 44 68 60" fill="none" stroke="#1d4ed8" stroke-width="2.2" stroke-linecap="round" opacity="0.85"/>
  <path d="M32 54 Q46 44 60 54" fill="none" stroke="#1d4ed8" stroke-width="1.6" stroke-linecap="round" opacity="0.55"/>
  <circle cx="46" cy="44" r="2.5" fill="#1d4ed8" opacity="0.9"/>
  <g transform="translate(20,40)" opacity="0.4">
    <line x1="-3" y1="0" x2="3" y2="0" stroke="#1d4ed8" stroke-width="1"/>
    <line x1="0" y1="-3" x2="0" y2="3" stroke="#1d4ed8" stroke-width="1"/>
    <line x1="-2" y1="-2" x2="2" y2="2" stroke="#1d4ed8" stroke-width="1"/>
    <line x1="2" y1="-2" x2="-2" y2="2" stroke="#1d4ed8" stroke-width="1"/>
  </g>
  <g transform="translate(72,38)" opacity="0.35">
    <line x1="-3" y1="0" x2="3" y2="0" stroke="#0d9488" stroke-width="1"/>
    <line x1="0" y1="-3" x2="0" y2="3" stroke="#0d9488" stroke-width="1"/>
    <line x1="-2" y1="-2" x2="2" y2="2" stroke="#0d9488" stroke-width="1"/>
    <line x1="2" y1="-2" x2="-2" y2="2" stroke="#0d9488" stroke-width="1"/>
  </g>
  <line x1="108" y1="24" x2="108" y2="96" stroke="#1d4ed8" stroke-width="0.5" opacity="0.2"/>
  <text x="124" y="72" font-family="system-ui,-apple-system,sans-serif" font-size="38" font-weight="800" letter-spacing="-1" fill="#0f172a">GLIDE</text>
  <text x="252" y="72" font-family="system-ui,-apple-system,sans-serif" font-size="38" font-weight="800" letter-spacing="-1" fill="url(#castgrad)">CAST<tspan baseline-shift="super" font-size="15" fill="#1d4ed8" letter-spacing="0">™</tspan></text>
  <text x="124" y="92" font-family="system-ui,-apple-system,sans-serif" font-size="11" font-weight="600" fill="#1d4ed8" letter-spacing="3" opacity="0.7">WAX DONE RIGHT<tspan baseline-shift="super" font-size="6.5" letter-spacing="0" opacity="1">℠</tspan></text>
  <text x="307" y="92" font-family="system-ui,-apple-system,sans-serif" font-size="10" font-weight="700" fill="#0d9488" letter-spacing="0.6" opacity="0.82">PATENT PENDING</text>
</svg>
